<?xml version="1.0" encoding="UTF-8"?>
<!DOCTYPE svg PUBLIC "-//W3C//DTD SVG 1.1//EN" "http://www.w3.org/Graphics/SVG/1.1/DTD/svg11.dtd">
<!-- Creator: CorelDRAW 2020 (64 Bit Versão de avaliação) -->
<svg xmlns="http://www.w3.org/2000/svg" xml:space="preserve" width="864px" height="768px" version="1.1" style="shape-rendering:geometricPrecision; text-rendering:geometricPrecision; image-rendering:optimizeQuality; fill-rule:evenodd; clip-rule:evenodd"
viewBox="0 0 262.916 233.703"
 xmlns:xlink="http://www.w3.org/1999/xlink"
 xmlns:xodm="http://www.corel.com/coreldraw/odm/2003">
 <defs>
  <style type="text/css">
   <![CDATA[
    .fil2 {fill:#0F0F0F}
    .fil0 {fill:red}
    .fil1 {fill:url(#id0)}
   ]]>
  </style>
  <linearGradient id="id0" gradientUnits="userSpaceOnUse" x1="62.54" y1="182.051" x2="200.212" y2="24.828">
   <stop offset="0" style="stop-opacity:1; stop-color:#023A78"/>
   <stop offset="1" style="stop-opacity:1; stop-color:#007AC1"/>
  </linearGradient>
 </defs>
 <g id="Camada_x0020_1">
  <metadata id="CorelCorpID_0Corel-Layer"/>
  <g id="_2522905114928">
   <path class="fil0" d="M0 13.559l0 40.157c0,6.113 6.926,13.037 13.041,13.037l11.477 0 0 91.786c0,18.556 14.199,36.374 32.185,43.442 6.418,2.523 13.347,3.494 22.068,3.494l106.418 0c23.19,0 38.903,-10.694 47.995,-28.681 2.402,-4.752 5.214,-13.263 5.214,-20.341l0 -89.7c7.249,0 14.908,1.037 19.952,-4.044 1.931,-1.943 4.566,-6.378 4.566,-10.037l0 -37.548c0,-4.935 -2.244,-8.299 -4.807,-10.839 -2.746,-2.72 -6.623,-4.285 -11.886,-4.285l-83.987 0c-12.632,0 -17.736,7.279 -17.736,19.296l0 28.683c0,9.802 4.306,18.774 15.128,18.774l8.868 0 0 68.318 -74.598 0 0 -68.318 9.39 0c7.999,0 14.607,-6.606 14.607,-14.602l0 -38.07c0,-4.316 -2.304,-7.362 -5.07,-10.055 -2.677,-2.607 -6.596,-4.026 -11.623,-4.026l-83.987 0c-9.869,0 -17.215,6.271 -17.215,13.559zm88.292 47.59c-0.373,3.768 -0.523,73.904 0.023,76.403 1.056,4.835 6.82,3.776 11.844,3.776l61.556 0c14.576,0 12.518,1.051 12.518,-18.252 0,-10.985 0.563,-54.92 -0.131,-61.927 -10.716,0 -23.241,2.527 -23.856,-8.975 -0.564,-10.549 0.024,-22.663 -0.013,-33.401 -0.049,-14.472 7.676,-12.909 20.35,-12.909l66.25 0c12.68,0 20.272,-1.621 20.221,12.907 -0.159,45.146 4.904,42.378 -24.358,42.378 -0.677,5.477 -0.163,50.312 -0.163,59.841 0,16.86 2.341,41.654 -5.038,54.821 -6.094,10.874 -18.695,22.894 -36.149,23.656 -19.201,0.838 -40.457,0.014 -59.888,0.014 -19.548,0 -40.609,0.754 -59.968,-0.019 -17.403,-0.696 -30.351,-12.435 -36.297,-23.455 -7.624,-14.128 -5.332,-36.763 -5.332,-54.495 0,-9.701 0.525,-54.802 -0.163,-60.363 -10.519,0 -23.198,2.638 -24.288,-8.648 -0.904,-9.363 -0.045,-23.331 -0.07,-33.211 -0.037,-14.806 6.424,-13.426 19.699,-13.426l66.252 0c12.58,0 21.191,-2.081 21.137,12.388 -0.169,45.096 4.835,42.897 -24.136,42.897z"/>
   <path class="fil1" d="M36.239 159.241c-0.933,14.083 14.315,31.74 33.119,34.333 7.969,1.099 84.98,0.443 99.66,0.443 10.142,0 22.361,0.864 31.443,-1.953 8.662,-2.686 15.411,-8.663 19.278,-14.113 8.005,-11.28 6.119,-15.147 7.52,-25.151l0.017 -96.993c6.124,-0.015 20.347,1.212 23.939,-1.762l0.21 -40.834c-4.897,-0.592 -61.477,-0.158 -71.452,-0.158 -4.594,0 -20.732,-1.023 -23.573,0.506 -0.97,2.876 -0.412,27.143 -0.424,32.334 -0.019,8.141 -1.048,9.404 7.3,9.61 5.469,0.134 10.953,0.048 16.425,0.048l0.129 71.485c0.278,11.265 0.751,19.83 -11.833,19.797l-63.665 0.111c-11.487,0.198 -19.087,1.807 -21.579,-9.79l-0.068 -81.347c5.678,-0.024 18.966,0.588 23.185,-1.009 1.323,-4.152 0.799,-25.356 0.796,-32.373 -0.007,-12.666 3.848,-9.372 -24.765,-9.372l-66.82 -0.043c-4.292,-0.071 -3.601,-1.087 -3.594,7.329 0.005,5.288 -0.478,32.489 0.214,33.673 3.612,3.03 17.932,1.769 24.029,1.795 0,10.661 -0.744,101.72 0.509,103.434z"/>
  </g>
  <path class="fil2" d="M5.848 170.031l6.305 12.735c19.636,25.599 19.811,8.973 19.811,50.937 15.661,-3.72 68.827,-19.437 81.146,-25.467 4.908,11.315 3.044,-4.724 -0.159,8.395 -2.436,9.969 -0.663,-3.629 -6.085,17.072 54.03,-4.583 23.245,-30.839 122.968,-78.317 21.113,-10.053 30.783,-8.115 33.082,-36.295 -45.068,-10.708 -94.474,19.455 -131.083,38.204 -16.97,8.691 -45.924,28.938 -61.205,27.709 -27.476,-2.217 -28.754,-30.92 -64.78,-14.973z"/>
 </g>
</svg>
